.
..............................Site Info...........................

 -   http://www.scenetime.com  *_*    

Scenetime .Always on time . friendly online private torrent community ..

     We care to share . Join us on  http://www.scenetime.com 

    Be the first to get new release at  http://www.scenetime.com

        Seed back for speed


...................................NFO:.................................................[img]http://img571.imageshack.us/img571/7510/402343bas1nu8x.jpg[/img]
[img][img]http://img14.imageshack.us/img14/7272/blackcobra.jpg[/img][/img]


Genre:Action
Language:English
IMDb:http://www.imdb.com/title/tt1499948/
Source:DVD Thanks
Encoder:Tony

Format                                   : AVI
Format/Info                              : Audio Video Interleave
File size                                : 885 MiB
Duration                                 : 1h 28mn
Overall bit rate                         : 1 397 Kbps

Video
ID                                       : 0
Format                                   : MPEG-4 Visual
Format profile                           : Advanced Simple@L5
Format settings, BVOP                    : 1
Format settings, QPel                    : No
Format settings, GMC                     : No warppoints
Format settings, Matrix                  : Default (H.263)
Codec ID                                 : XVID
Codec ID/Hint                            : XviD
Duration                                 : 1h 28mn
Bit rate                                 : 1 004 Kbps
Width                                    : 640 pixels
Height                                   : 272 pixels
Display aspect ratio                     : 2.35:1
Frame rate                               : 23.976 fps
Color space                              : YUV
Chroma subsampling                       : 4:2:0
Bit depth                                : 8 bits
Scan type                                : Progressive
Compression mode                         : Lossy
Bits/(Pixel*Frame)                       : 0.240
Stream size                              : 636 MiB (72%)
Writing library                          : XviD 1.2.1 (UTC 2008-12-04)

Audio
ID                                       : 1
Format                                   : AC-3
Format/Info                              : Audio Coding 3
Mode extension                           : CM (complete main)
Codec ID                                 : 2000
Duration                                 : 1h 28mn
Bit rate mode                            : Constant
Bit rate                                 : 384 Kbps
Channel(s)                               : 6 channels
Channel positions                        : Front: L C R, Side: L R, LFE
Sampling rate                            : 48.0 KHz
Bit depth                                : 16 bits
Compression mode                         : Lossy
Stream size                              : 243 MiB (27%)
Alignment                                : Aligned on interleaves
Interleave, duration                     : 42 ms (1.00 video frame)
Interleave, preload duration             : 512 ms

    
Plot:
  One man travels across country, smuggling illegal black diamonds to sell in order to pay for his father's pardon in South Africa. 



Greets:
 CRYS,INSPiRAL,IMAGINE,LKRG,ADTRG,FXG,3Li,FLAWL3SS,CrEwSaDe,TA,iLLUSiON,EMBER,HOPE,GooN,BBnRG,NOGRP,ETRG,BHRG,iLLUMiNATi,MiSTERE.ViSiON,DTRG SAFCuk009,LU,TheFalcon007,MYSTiC,PrisM,Noir,WBZ,LAP,Rx,Kingdom,SAFCuk009+Fabreezy,HDLiTE,TWiZTED,ETRG.ELEKTRI4KA,MAGNAT,CM8
                And to all the other p2p grps past and present